<svg xmlns="http://www.w3.org/2000/svg" viewBox="0 0 64 64">
  <defs>
    <linearGradient id="b" x1="0" x2="0" y1="0" y2="1">
      <stop offset="0%" stop-color="#1f2937"/>
      <stop offset="100%" stop-color="#0f172a"/>
    </linearGradient>
    <linearGradient id="belly" x1="0" x2="0" y1="0" y2="1">
      <stop offset="0%" stop-color="#e2e8f0"/>
      <stop offset="100%" stop-color="#94a3b8"/>
    </linearGradient>
  </defs>
  <rect width="64" height="64" rx="14" fill="#0b1220"/>
  <path d="M32 10c10 0 18 7 18 18v10c0 9-8 16-18 16S14 47 14 38V28c0-11 8-18 18-18z" fill="url(#b)" stroke="#34d399" stroke-width="1.5"/>
  <path d="M20 18c3-3 7-3 10 0-2 4-7 4-10 0zM34 18c3-3 7-3 10 0-2 4-7 4-10 0z" fill="#34d399" opacity="0.85"/>
  <ellipse cx="32" cy="42" rx="9" ry="10" fill="url(#belly)" opacity="0.85"/>
  <circle cx="24" cy="28" r="6" fill="#f8fafc"/>
  <circle cx="40" cy="28" r="6" fill="#f8fafc"/>
  <circle cx="24" cy="28" r="2.6" fill="#0f172a"/>
  <circle cx="40" cy="28" r="2.6" fill="#0f172a"/>
  <path d="M29 34l3 3 3-3-3 2z" fill="#fbbf24"/>
</svg>
